<svg width="859" height="602" viewBox="0 0 859 602" fill="none" xmlns="http://www.w3.org/2000/svg">
<g clip-path="url(#clip0_1_150)">
<path d="M54.72 570.813H797.707C810.649 570.801 823.188 566.307 833.192 558.096C843.196 549.885 850.048 538.463 852.583 525.771C864.661 465.795 870.539 379.139 736.918 287.728C585.229 183.958 576.542 -56.8659 382.918 12.2781C207.278 75.0001 271.2 199.616 123.93 312.626C51.148 368.476 0.799999 416.706 0.00799902 503.131C-0.465001 554.943 19.1 570.813 54.72 570.813Z" fill="#F3F5FD"/>
<path d="M772.027 422.136C772.027 422.136 764.295 418.036 766.021 396.98L750.045 394.017C750.045 394.017 751.845 412.896 743.757 418.89L772.027 422.136Z" fill="#E98862"/>
<g opacity="0.15">
<path d="M747.031 414.943L760.3 404.789L749.876 404.681C749.575 408.249 748.61 411.729 747.031 414.943Z" fill="black"/>
</g>
<path d="M775.086 388.815C773.98 395.203 770.494 401.253 764.859 403.315C758.169 405.764 753.214 405.93 745.501 405.93C734.976 405.93 735.324 394.953 735.028 383.892C734.728 372.786 735.615 360.873 739.774 357.003C748.074 349.279 772.448 354.171 775.412 367.091C776.945 373.775 776.139 382.734 775.086 388.815Z" fill="#E98862"/>
<path d="M765.276 402.711C765.608 403.773 765.839 404.236 766.796 403.668C770.553 401.436 779.006 396.58 781.886 378.385C784.466 362.085 774.409 355.359 766.386 352.96C759.473 350.892 743.339 350.467 735.767 355.031C729.242 358.964 735.767 368.111 735.767 368.111C738.65 368.244 739.232 370.723 746.035 370.723C751.295 370.723 754.716 368.373 759.64 368.58C764.148 368.769 765.074 371.517 764.915 373.275C763.949 383.961 764.1 398.955 765.276 402.711Z" fill="#0F1011"/>
<path d="M750.067 383.894C750.867 383.894 751.516 383.245 751.516 382.445C751.516 381.645 750.867 380.996 750.067 380.996C749.267 380.996 748.618 381.645 748.618 382.445C748.618 383.245 749.267 383.894 750.067 383.894Z" fill="#0F1011"/>
<path d="M738.636 382.957C739.436 382.957 740.085 382.308 740.085 381.508C740.085 380.708 739.436 380.059 738.636 380.059C737.836 380.059 737.187 380.708 737.187 381.508C737.187 382.308 737.836 382.957 738.636 382.957Z" fill="#0F1011"/>
<path d="M736.125 378.42C735.949 378.414 735.782 378.34 735.659 378.214C735.536 378.088 735.467 377.919 735.466 377.743C735.465 377.567 735.532 377.397 735.653 377.27C735.775 377.142 735.941 377.066 736.117 377.059L739.955 377.01C740.133 377.015 740.303 377.087 740.431 377.211C740.558 377.336 740.635 377.504 740.644 377.682C740.645 377.771 740.629 377.86 740.596 377.943C740.562 378.026 740.513 378.102 740.451 378.166C740.388 378.23 740.314 378.281 740.232 378.316C740.15 378.351 740.061 378.37 739.972 378.371L736.134 378.42H736.125Z" fill="#0F1011"/>
<path d="M753.2 379.82C753.146 379.819 753.092 379.813 753.04 379.801L749.256 378.89C749.167 378.871 749.083 378.834 749.009 378.782C748.935 378.73 748.872 378.663 748.823 378.586C748.775 378.51 748.743 378.424 748.728 378.334C748.713 378.245 748.717 378.153 748.738 378.065C748.759 377.977 748.798 377.894 748.851 377.821C748.905 377.748 748.973 377.686 749.051 377.64C749.129 377.593 749.215 377.563 749.305 377.55C749.395 377.537 749.486 377.543 749.574 377.566L753.358 378.476C753.521 378.514 753.664 378.611 753.76 378.748C753.856 378.885 753.898 379.052 753.879 379.218C753.859 379.384 753.779 379.538 753.654 379.649C753.529 379.759 753.367 379.82 753.2 379.82Z" fill="#0F1011"/>
<path d="M757.605 385.991C757.496 387.601 758.026 389.19 759.079 390.413C760.133 391.636 761.625 392.395 763.234 392.527C764.843 392.658 766.439 392.151 767.677 391.115C768.914 390.079 769.695 388.598 769.849 386.991C769.929 386.184 769.846 385.37 769.605 384.596C769.364 383.822 768.969 383.104 768.445 382.486C767.92 381.868 767.277 381.362 766.552 380.998C765.828 380.634 765.038 380.419 764.229 380.367C759.851 380.228 757.882 382.61 757.605 385.991Z" fill="#E98862"/>
<g opacity="0.15">
<path d="M743.635 390.482C743.585 390.482 743.536 390.475 743.488 390.46L740 389.389C739.932 389.368 739.87 389.333 739.816 389.286C739.763 389.239 739.721 389.182 739.691 389.117C739.662 389.053 739.647 388.982 739.647 388.912C739.647 388.841 739.662 388.771 739.691 388.706L741.983 383.599C742.01 383.539 742.048 383.485 742.096 383.44C742.144 383.395 742.2 383.359 742.261 383.336C742.323 383.313 742.388 383.302 742.454 383.303C742.519 383.305 742.584 383.32 742.644 383.347C742.704 383.374 742.758 383.412 742.803 383.46C742.848 383.508 742.884 383.564 742.907 383.625C742.93 383.687 742.941 383.752 742.94 383.818C742.938 383.883 742.923 383.948 742.896 384.008L740.835 388.599L743.78 389.504C743.894 389.539 743.992 389.614 744.056 389.715C744.12 389.817 744.146 389.937 744.128 390.056C744.11 390.174 744.051 390.282 743.96 390.36C743.869 390.439 743.754 390.482 743.634 390.482H743.635Z" fill="black"/>
</g>
<path d="M749.4 393.857C749.4 393.857 744.051 394.421 740.3 393.111C740.3 393.111 740.329 396.634 744.562 396.981C748.795 397.328 749.4 393.857 749.4 393.857Z" fill="white"/>
<path d="M709.139 577.139C707.239 576.821 685.804 573.159 685.804 573.159L689.34 552.459C689.34 552.459 710.716 556.111 712.61 556.428L709.139 577.139Z" fill="#E98862"/>
<path d="M673.576 597C673.485 597.557 673.51 598.127 673.65 598.675C673.79 599.222 674.04 599.735 674.387 600.181C674.734 600.626 675.168 600.996 675.664 601.267C676.16 601.537 676.706 601.702 677.269 601.752C678.049 601.821 678.832 601.665 679.526 601.304C680.221 600.943 680.798 600.391 681.189 599.713L693.3 576.953C693.533 576.512 693.668 576.026 693.695 575.528C693.722 575.03 693.642 574.532 693.459 574.068C691.715 570.37 691.204 566.21 692 562.2C692.749 559.097 694.355 556.267 696.635 554.033C696.856 553.84 697.018 553.588 697.101 553.307C697.185 553.025 697.186 552.726 697.106 552.444C697.025 552.162 696.866 551.908 696.647 551.713C696.428 551.518 696.158 551.389 695.868 551.342L684.08 549.367C683.732 549.309 683.376 549.32 683.033 549.399C682.689 549.479 682.365 549.626 682.078 549.831C681.791 550.036 681.548 550.296 681.362 550.596C681.176 550.895 681.051 551.229 680.994 551.577L673.576 597Z" fill="#C1D8ED"/>
<path d="M775.5 521.152C784.395 521.522 793.455 521.782 802.516 522.006L816.131 522.306L829.731 522.551L831.086 522.575C836.703 522.68 842.071 524.912 846.108 528.819C850.145 532.726 852.551 538.019 852.84 543.63C853.128 549.24 851.279 554.752 847.665 559.053C844.05 563.354 838.94 566.125 833.363 566.807L698.963 583.127L693.487 543.406L827.287 522.751L830.919 567.008L817.11 567.9L803.31 568.735C794.095 569.267 784.877 569.765 775.493 570.151L775.5 521.152Z" fill="#262626"/>
<path d="M809.4 568.441C790.846 565.741 789 565.241 788.388 565.082L793.843 544.803C793.781 544.787 793.702 544.765 793.605 544.744C795.125 545.076 804.556 546.516 812.421 547.66L809.4 568.441Z" fill="#E98862"/>
<path d="M832.576 586.492C832.771 587.022 832.854 587.586 832.821 588.15C832.788 588.714 832.639 589.265 832.384 589.769C832.128 590.272 831.771 590.718 831.336 591.077C830.9 591.437 830.395 591.702 829.852 591.858C829.1 592.073 828.301 592.069 827.551 591.846C826.801 591.624 826.13 591.191 825.617 590.6L809.406 570.558C809.095 570.169 808.872 569.717 808.751 569.234C808.63 568.751 808.615 568.247 808.706 567.758C809.717 563.795 809.429 559.612 807.886 555.825C806.562 552.92 804.448 550.446 801.786 548.686C801.533 548.538 801.326 548.321 801.191 548.061C801.056 547.801 800.998 547.507 801.024 547.215C801.049 546.923 801.157 546.644 801.335 546.41C801.513 546.177 801.754 545.999 802.029 545.898L813.229 541.722C813.559 541.599 813.911 541.542 814.263 541.555C814.616 541.568 814.962 541.651 815.282 541.798C815.603 541.945 815.891 542.154 816.13 542.413C816.37 542.671 816.556 542.975 816.678 543.306L832.576 586.492Z" fill="#C1D8ED"/>
<path d="M745.653 566.551C740.021 566.072 734.392 565.726 728.763 565.402C723.135 565.102 717.506 564.802 711.88 564.602L703.44 564.277L695 564.032C689.374 563.845 683.75 563.767 678.126 563.66L680.075 523.251C690.604 524.723 701.147 526.076 711.687 527.462C722.227 528.848 732.778 530.125 743.327 531.422L759.161 533.288L775.006 535.064C785.574 536.2 796.143 537.328 806.736 538.258L802.088 578.088C791.566 576.554 781.021 575.218 770.475 573.888L754.647 571.968L738.809 570.138C728.244 568.972 717.681 567.787 707.109 566.706C696.537 565.625 685.962 564.517 675.377 563.525C670.301 563.048 665.592 560.672 662.193 556.872C658.793 553.072 656.954 548.129 657.042 543.032C657.131 537.934 659.141 533.058 662.67 529.378C666.199 525.699 670.987 523.488 676.077 523.187L677.329 523.116C682.945 522.787 688.562 522.487 694.176 522.078L702.599 521.501L711.019 520.843C716.633 520.42 722.246 519.895 727.857 519.375C733.469 518.829 739.08 518.26 744.689 517.559L745.653 566.551Z" fill="#262626"/>
<path d="M795.93 515.017L798.89 564.722L713.4 563.718L719.853 519.712L795.93 515.017Z" fill="#262626"/>
<path d="M824.469 503.779L801.812 433.534C800.874 429.877 798.924 426.558 796.184 423.96C791.614 419.39 783.724 416.44 774.104 416.43C773.384 422.04 739.324 422.06 739.064 416.56C737.764 416.58 736.754 416.6 736.124 416.63C722.364 417.223 716.824 422.52 715.066 430.492L686.182 500.384C685.476 502.095 685.235 503.963 685.483 505.797C685.732 507.632 686.461 509.368 687.596 510.83C688.732 512.292 690.234 513.428 691.95 514.122C693.666 514.816 695.535 515.045 697.368 514.784L713.148 512.535C712.371 516.466 712.248 519.522 713.784 523.055C717.974 532.685 800.304 536.685 801.404 519.745C801.415 519.579 801.416 519.414 801.422 519.245L815.102 517.973C816.728 517.822 818.3 517.308 819.7 516.468C821.101 515.628 822.295 514.485 823.194 513.121C824.093 511.758 824.675 510.21 824.896 508.592C825.116 506.974 824.97 505.327 824.469 503.773V503.779ZM712.616 491.4L717.837 478.766C717.779 483.285 717.537 487.25 717.19 490.748L712.616 491.4ZM799.543 497.526L795.551 497.897C793.583 491.637 792.587 485.112 792.6 478.55C792.6 477.785 792.633 477.026 792.681 476.27L799.543 497.526Z" fill="#367CFF"/>
<path d="M767.491 450.038L771.024 502.717C771.066 503.338 770.979 503.961 770.77 504.547C770.561 505.133 770.234 505.67 769.809 506.125C769.384 506.58 768.87 506.942 768.299 507.19C767.728 507.438 767.112 507.566 766.49 507.566H692.913C691.789 507.566 690.704 507.149 689.869 506.396C689.034 505.643 688.508 504.607 688.392 503.489L682.948 450.81C682.882 450.177 682.951 449.537 683.148 448.933C683.345 448.328 683.667 447.771 684.093 447.299C684.519 446.826 685.04 446.448 685.621 446.19C686.203 445.931 686.832 445.798 687.468 445.798H762.956C764.109 445.798 765.218 446.236 766.06 447.023C766.902 447.81 767.414 448.888 767.491 450.038Z" fill="#9EBCEA"/>
<path d="M699.058 507.566H776.364C778.116 507.566 779.536 506.146 779.536 504.394C779.536 502.642 778.116 501.222 776.364 501.222H699.058C697.306 501.222 695.886 502.642 695.886 504.394C695.886 506.146 697.306 507.566 699.058 507.566Z" fill="#9EBCEA"/>
<path d="M725.037 483.682C728.903 483.682 732.037 480.548 732.037 476.682C732.037 472.816 728.903 469.682 725.037 469.682C721.171 469.682 718.037 472.816 718.037 476.682C718.037 480.548 721.171 483.682 725.037 483.682Z" fill="white"/>
<path d="M735.122 514.256C739.612 517.026 746.562 518.336 752.622 518.816L752.962 507.776C750.112 507.696 745.732 507.396 741.442 507.566C739.504 505.986 738.388 505.516 736.398 503.526C734.28 501.408 728.722 500.136 727.672 503.526C726.622 506.916 731.182 511.816 735.122 514.256Z" fill="#E98862"/>
<path d="M739.064 416.56C739.324 422.06 742.314 430.15 751.544 430.76C763.844 431.57 773.384 422.04 774.104 416.43H774.074C761.964 416.43 746.124 416.45 739.064 416.56Z" fill="#E98862"/>
<path d="M673.557 10.2549H242.653V460.041H673.557V10.2549Z" fill="#DEE8F5"/>
<path d="M673.557 10.2549H242.653V47.3059H673.557V10.2549Z" fill="#C1D8ED"/>
<path d="M652.754 38.0769C657.888 38.0769 662.05 33.9149 662.05 28.7809C662.05 23.6468 657.888 19.4849 652.754 19.4849C647.62 19.4849 643.458 23.6468 643.458 28.7809C643.458 33.9149 647.62 38.0769 652.754 38.0769Z" fill="white"/>
<path d="M371.765 87.2339H290.765V100.147H371.765V87.2339Z" fill="#C1D8ED"/>
<path d="M454.722 117.756H290.765V130.669H454.722V117.756Z" fill="white"/>
<path d="M564.287 117.756H471.218V130.669H564.287V117.756Z" fill="white"/>
<path d="M421.008 178.799H290.765V191.712H421.008V178.799Z" fill="white"/>
<path d="M564.287 178.799H437.504V191.712H564.287V178.799Z" fill="white"/>
<path d="M492.225 148.278H290.765V161.191H492.225V148.278Z" fill="white"/>
<path d="M605.764 148.278H508.721V161.191H605.764V148.278Z" fill="#C1D8ED"/>
<path d="M527.504 209.321H290.765V222.234H527.504V209.321Z" fill="white"/>
<path d="M622.199 209.321H544V222.234H622.199V209.321Z" fill="white"/>
<path d="M383.247 282.104H290.765V295.017H383.247V282.104Z" fill="white"/>
<path d="M564.286 282.104H399.743V295.017H564.286V282.104Z" fill="white"/>
<path d="M421.008 343.147H290.765V356.06H421.008V343.147Z" fill="white"/>
<path d="M496.2 343.147H437.504V356.06H496.2V343.147Z" fill="white"/>
<path d="M527.504 312.626H290.765V325.539H527.504V312.626Z" fill="#C1D8ED"/>
<path d="M605.764 312.626H544V325.539H605.764V312.626Z" fill="white"/>
<path d="M453.548 373.669H290.765V386.582H453.548V373.669Z" fill="white"/>
<path d="M548.243 373.669H470.044V386.582H548.243V373.669Z" fill="#C1D8ED"/>
<path d="M383.247 404.371H290.765V417.284H383.247V404.371Z" fill="white"/>
<path d="M564.286 404.371H399.743V417.284H564.286V404.371Z" fill="white"/>
<path d="M371.765 245.713H290.765V258.626H371.765V245.713Z" fill="#C1D8ED"/>
<path d="M168.158 345.283L158.683 343.043L146.805 393.284L156.28 395.524L168.158 345.283Z" fill="#F0F6FF"/>
<path d="M148.265 339.143L143.005 340.114L151.139 384.212L156.4 383.241L148.265 339.143Z" fill="#C1D8ED"/>
<path d="M148.262 339.128L143.008 340.128L143.933 344.992L149.188 343.992L148.262 339.128Z" fill="#DEE8F5"/>
<path d="M164.545 350.356L147.5 393.623L150.421 394.773L167.465 351.507L164.545 350.356Z" fill="#0CBC8B"/>
<path d="M168.278 369.284H142.584V402.122H168.278V369.284Z" fill="#C1D8ED"/>
<path d="M207.034 570.813H217.562V467.247H207.034V570.813Z" fill="#C1D8ED"/>
<path d="M215.699 570.813H226.227V467.247H215.699V570.813Z" fill="#DEE8F5"/>
<path d="M75.905 570.813H86.433L86.433 467.247H75.905L75.905 570.813Z" fill="#C1D8ED"/>
<path d="M84.569 570.813H95.097L95.097 467.247H84.569L84.569 570.813Z" fill="#DEE8F5"/>
<path d="M178.16 570.813H188.688V467.247H178.16V570.813Z" fill="#C1D8ED"/>
<path d="M186.824 570.813H197.352V467.247H186.824V570.813Z" fill="#DEE8F5"/>
<path d="M47.03 570.813H57.558L57.558 467.247H47.03L47.03 570.813Z" fill="#C1D8ED"/>
<path d="M55.695 570.813H66.223L66.223 467.247H55.695L55.695 570.813Z" fill="#DEE8F5"/>
<path d="M188.622 400.954H47.031V469.73H188.622V400.954Z" fill="#C1D8ED"/>
<path d="M226.226 400.954H84.635V469.73H226.226V400.954Z" fill="#DEE8F5"/>
<g opacity="0.53">
<path d="M218.61 410.731H92.253V459.649H218.61V410.731Z" fill="#F3F5FD"/>
</g>
<path d="M155.431 440.802C158.53 440.802 161.043 438.29 161.043 435.19C161.043 432.091 158.53 429.578 155.431 429.578C152.332 429.578 149.819 432.091 149.819 435.19C149.819 438.29 152.332 440.802 155.431 440.802Z" fill="white"/>
</g>
<defs>
<clipPath id="clip0_1_150">
<rect width="858.404" height="601.763" fill="white"/>
</clipPath>
</defs>
</svg>
