<svg width="931" height="592" viewBox="0 0 931 592" fill="none" xmlns="http://www.w3.org/2000/svg">
<g clip-path="url(#clip0_1_3)">
<path opacity="0.1" d="M831.1 586.477C917.983 586.477 944.453 514.818 919.422 427.06C905.266 377.43 872.532 312.53 819.053 283.16C672.706 202.786 692.429 198.927 656.2 113.378C597.06 -26.2751 369.649 -31.6641 276.728 68.4079C204.428 146.272 173.488 256.039 74.984 336.915C-43.916 434.538 -11.486 587.891 102.725 587.891L831.1 586.477Z" fill="#367CFF"/>
<path d="M928.392 501.844H11.995L64.735 388.316H875.652L928.392 501.844Z" fill="#292A2E"/>
<path d="M928.392 501.844H11.995L64.735 388.316H875.652L928.392 501.844Z" fill="white"/>
<path d="M928.392 502.844H12C11.8314 502.844 11.6655 502.802 11.5178 502.721C11.37 502.64 11.2451 502.523 11.1547 502.38C11.0643 502.238 11.0113 502.075 11.0007 501.907C10.9901 501.739 11.0222 501.571 11.094 501.418L63.83 387.891C63.9107 387.719 64.0387 387.574 64.1989 387.472C64.3592 387.37 64.5451 387.316 64.735 387.316H875.651C875.841 387.316 876.027 387.37 876.188 387.472C876.348 387.574 876.476 387.719 876.557 387.891L929.3 501.418C929.372 501.57 929.404 501.738 929.393 501.905C929.383 502.073 929.331 502.236 929.241 502.378C929.151 502.52 929.027 502.637 928.88 502.719C928.733 502.8 928.568 502.843 928.4 502.844H928.392ZM13.569 500.844H926.817L875.017 389.316H65.371L13.569 500.844Z" fill="#292A2E"/>
<path d="M533.566 350.307H444.82V417.399H533.566V350.307Z" fill="#292A2E"/>
<path opacity="0.64" d="M533.567 350.308H444.82V386.15H533.567V350.308Z" fill="#0C0C0C"/>
<path d="M677.681 84.124H300.706C294.777 84.124 289.97 88.9307 289.97 94.86V357.952C289.97 363.881 294.777 368.688 300.706 368.688H677.681C683.61 368.688 688.417 363.881 688.417 357.952V94.86C688.417 88.9307 683.61 84.124 677.681 84.124Z" fill="#292A2E"/>
<path d="M672.381 96.319H306.006C303.572 96.319 301.599 98.2921 301.599 100.726V318.923C301.599 321.357 303.572 323.33 306.006 323.33H672.381C674.815 323.33 676.788 321.357 676.788 318.923V100.726C676.788 98.2921 674.815 96.319 672.381 96.319Z" fill="white"/>
<path d="M552.03 411.885H426.357C423.14 411.885 420.533 414.492 420.533 417.708C420.533 420.925 423.14 423.532 426.357 423.532H552.03C555.247 423.532 557.854 420.925 557.854 417.708C557.854 414.492 555.247 411.885 552.03 411.885Z" fill="#292A2E"/>
<path d="M427.037 132.58H410.352C410.252 132.584 410.153 132.567 410.06 132.532C409.967 132.496 409.882 132.442 409.811 132.373C409.739 132.304 409.682 132.221 409.643 132.129C409.604 132.038 409.584 131.939 409.584 131.839C409.584 131.74 409.604 131.641 409.643 131.55C409.682 131.458 409.739 131.375 409.811 131.306C409.882 131.237 409.967 131.183 410.06 131.147C410.153 131.112 410.252 131.095 410.352 131.099H427.037C427.229 131.106 427.41 131.187 427.543 131.325C427.676 131.463 427.751 131.648 427.751 131.839C427.751 132.031 427.676 132.216 427.543 132.354C427.41 132.492 427.229 132.573 427.037 132.58Z" fill="#292A2E"/>
<path d="M398.319 132.58H392.006C391.906 132.584 391.807 132.567 391.714 132.532C391.621 132.496 391.536 132.442 391.465 132.373C391.393 132.304 391.336 132.221 391.297 132.129C391.258 132.038 391.238 131.939 391.238 131.839C391.238 131.74 391.258 131.641 391.297 131.55C391.336 131.458 391.393 131.375 391.465 131.306C391.536 131.237 391.621 131.183 391.714 131.147C391.807 131.112 391.906 131.095 392.006 131.099H398.319C398.419 131.095 398.518 131.112 398.611 131.147C398.704 131.183 398.789 131.237 398.86 131.306C398.932 131.375 398.989 131.458 399.028 131.55C399.067 131.641 399.087 131.74 399.087 131.839C399.087 131.939 399.067 132.038 399.028 132.129C398.989 132.221 398.932 132.304 398.86 132.373C398.789 132.442 398.704 132.496 398.611 132.532C398.518 132.567 398.419 132.584 398.319 132.58Z" fill="#367CFF"/>
<path d="M398.319 145.945H392.006C391.809 145.945 391.621 145.867 391.482 145.728C391.343 145.589 391.265 145.401 391.265 145.204C391.265 145.007 391.343 144.819 391.482 144.68C391.621 144.541 391.809 144.463 392.006 144.463H398.319C398.516 144.463 398.704 144.541 398.843 144.68C398.982 144.819 399.06 145.007 399.06 145.204C399.06 145.401 398.982 145.589 398.843 145.728C398.704 145.867 398.516 145.945 398.319 145.945Z" fill="#367CFF"/>
<path d="M398.319 159.31H392.006C391.809 159.31 391.621 159.232 391.482 159.093C391.343 158.954 391.265 158.766 391.265 158.569C391.265 158.372 391.343 158.184 391.482 158.045C391.621 157.906 391.809 157.828 392.006 157.828H398.319C398.516 157.828 398.704 157.906 398.843 158.045C398.982 158.184 399.06 158.372 399.06 158.569C399.06 158.766 398.982 158.954 398.843 159.093C398.704 159.232 398.516 159.31 398.319 159.31Z" fill="#367CFF"/>
<path d="M398.319 172.675H392.006C391.809 172.675 391.621 172.597 391.482 172.458C391.343 172.319 391.265 172.131 391.265 171.934C391.265 171.737 391.343 171.549 391.482 171.41C391.621 171.271 391.809 171.193 392.006 171.193H398.319C398.516 171.193 398.704 171.271 398.843 171.41C398.982 171.549 399.06 171.737 399.06 171.934C399.06 172.131 398.982 172.319 398.843 172.458C398.704 172.597 398.516 172.675 398.319 172.675Z" fill="#367CFF"/>
<path d="M398.319 186.039H392.006C391.906 186.043 391.807 186.026 391.714 185.991C391.621 185.955 391.536 185.901 391.465 185.832C391.393 185.763 391.336 185.68 391.297 185.588C391.258 185.497 391.238 185.398 391.238 185.298C391.238 185.199 391.258 185.1 391.297 185.009C391.336 184.917 391.393 184.834 391.465 184.765C391.536 184.696 391.621 184.642 391.714 184.606C391.807 184.571 391.906 184.554 392.006 184.558H398.319C398.419 184.554 398.518 184.571 398.611 184.606C398.704 184.642 398.789 184.696 398.86 184.765C398.932 184.834 398.989 184.917 399.028 185.009C399.067 185.1 399.087 185.199 399.087 185.298C399.087 185.398 399.067 185.497 399.028 185.588C398.989 185.68 398.932 185.763 398.86 185.832C398.789 185.901 398.704 185.955 398.611 185.991C398.518 186.026 398.419 186.043 398.319 186.039Z" fill="#367CFF"/>
<path d="M398.319 199.4H392.006C391.809 199.4 391.621 199.322 391.482 199.183C391.343 199.044 391.265 198.856 391.265 198.659C391.265 198.462 391.343 198.274 391.482 198.135C391.621 197.996 391.809 197.918 392.006 197.918H398.319C398.516 197.918 398.704 197.996 398.843 198.135C398.982 198.274 399.06 198.462 399.06 198.659C399.06 198.856 398.982 199.044 398.843 199.183C398.704 199.322 398.516 199.4 398.319 199.4Z" fill="#367CFF"/>
<path d="M398.319 212.769H392.006C391.809 212.769 391.621 212.691 391.482 212.552C391.343 212.413 391.265 212.225 391.265 212.028C391.265 211.831 391.343 211.643 391.482 211.504C391.621 211.365 391.809 211.287 392.006 211.287H398.319C398.516 211.287 398.704 211.365 398.843 211.504C398.982 211.643 399.06 211.831 399.06 212.028C399.06 212.225 398.982 212.413 398.843 212.552C398.704 212.691 398.516 212.769 398.319 212.769Z" fill="#367CFF"/>
<path d="M398.319 226.133H392.006C391.906 226.137 391.807 226.12 391.714 226.085C391.621 226.049 391.536 225.995 391.465 225.926C391.393 225.857 391.336 225.774 391.297 225.682C391.258 225.591 391.238 225.492 391.238 225.392C391.238 225.293 391.258 225.194 391.297 225.103C391.336 225.011 391.393 224.928 391.465 224.859C391.536 224.79 391.621 224.736 391.714 224.7C391.807 224.665 391.906 224.648 392.006 224.652H398.319C398.419 224.648 398.518 224.665 398.611 224.7C398.704 224.736 398.789 224.79 398.86 224.859C398.932 224.928 398.989 225.011 399.028 225.103C399.067 225.194 399.087 225.293 399.087 225.392C399.087 225.492 399.067 225.591 399.028 225.682C398.989 225.774 398.932 225.857 398.86 225.926C398.789 225.995 398.704 226.049 398.611 226.085C398.518 226.12 398.419 226.137 398.319 226.133Z" fill="#367CFF"/>
<path d="M398.319 239.5H392.006C391.809 239.5 391.621 239.422 391.482 239.283C391.343 239.144 391.265 238.956 391.265 238.759C391.265 238.562 391.343 238.374 391.482 238.235C391.621 238.096 391.809 238.018 392.006 238.018H398.319C398.516 238.018 398.704 238.096 398.843 238.235C398.982 238.374 399.06 238.562 399.06 238.759C399.06 238.956 398.982 239.144 398.843 239.283C398.704 239.422 398.516 239.5 398.319 239.5Z" fill="#367CFF"/>
<path d="M398.319 252.863H392.006C391.809 252.863 391.621 252.785 391.482 252.646C391.343 252.507 391.265 252.319 391.265 252.122C391.265 251.925 391.343 251.737 391.482 251.598C391.621 251.459 391.809 251.381 392.006 251.381H398.319C398.516 251.381 398.704 251.459 398.843 251.598C398.982 251.737 399.06 251.925 399.06 252.122C399.06 252.319 398.982 252.507 398.843 252.646C398.704 252.785 398.516 252.863 398.319 252.863Z" fill="#367CFF"/>
<path d="M398.319 266.227H392.006C391.906 266.231 391.807 266.214 391.714 266.179C391.621 266.143 391.536 266.089 391.465 266.02C391.393 265.951 391.336 265.868 391.297 265.776C391.258 265.685 391.238 265.586 391.238 265.487C391.238 265.387 391.258 265.288 391.297 265.197C391.336 265.105 391.393 265.022 391.465 264.953C391.536 264.884 391.621 264.83 391.714 264.794C391.807 264.759 391.906 264.742 392.006 264.746H398.319C398.419 264.742 398.518 264.759 398.611 264.794C398.704 264.83 398.789 264.884 398.86 264.953C398.932 265.022 398.989 265.105 399.028 265.197C399.067 265.288 399.087 265.387 399.087 265.487C399.087 265.586 399.067 265.685 399.028 265.776C398.989 265.868 398.932 265.951 398.86 266.02C398.789 266.089 398.704 266.143 398.611 266.179C398.518 266.214 398.419 266.231 398.319 266.227Z" fill="#367CFF"/>
<path d="M398.319 279.592H392.006C391.809 279.592 391.621 279.514 391.482 279.375C391.343 279.236 391.265 279.048 391.265 278.851C391.265 278.654 391.343 278.466 391.482 278.327C391.621 278.188 391.809 278.11 392.006 278.11H398.319C398.516 278.11 398.704 278.188 398.843 278.327C398.982 278.466 399.06 278.654 399.06 278.851C399.06 279.048 398.982 279.236 398.843 279.375C398.704 279.514 398.516 279.592 398.319 279.592Z" fill="#367CFF"/>
<path d="M398.319 292.957H392.006C391.809 292.957 391.621 292.879 391.482 292.74C391.343 292.601 391.265 292.413 391.265 292.216C391.265 292.019 391.343 291.831 391.482 291.692C391.621 291.553 391.809 291.475 392.006 291.475H398.319C398.516 291.475 398.704 291.553 398.843 291.692C398.982 291.831 399.06 292.019 399.06 292.216C399.06 292.413 398.982 292.601 398.843 292.74C398.704 292.879 398.516 292.957 398.319 292.957Z" fill="#367CFF"/>
<path d="M398.319 306.321H392.006C391.906 306.325 391.807 306.308 391.714 306.273C391.621 306.237 391.536 306.183 391.465 306.114C391.393 306.045 391.336 305.962 391.297 305.87C391.258 305.779 391.238 305.68 391.238 305.581C391.238 305.481 391.258 305.382 391.297 305.291C391.336 305.199 391.393 305.116 391.465 305.047C391.536 304.978 391.621 304.924 391.714 304.888C391.807 304.853 391.906 304.836 392.006 304.84H398.319C398.419 304.836 398.518 304.853 398.611 304.888C398.704 304.924 398.789 304.978 398.86 305.047C398.932 305.116 398.989 305.199 399.028 305.291C399.067 305.382 399.087 305.481 399.087 305.581C399.087 305.68 399.067 305.779 399.028 305.87C398.989 305.962 398.932 306.045 398.86 306.114C398.789 306.183 398.704 306.237 398.611 306.273C398.518 306.308 398.419 306.325 398.319 306.321Z" fill="#367CFF"/>
<path d="M440.371 145.945H425.171C425.071 145.949 424.972 145.932 424.879 145.897C424.786 145.861 424.701 145.807 424.63 145.738C424.558 145.669 424.501 145.586 424.462 145.494C424.423 145.403 424.403 145.304 424.403 145.204C424.403 145.105 424.423 145.006 424.462 144.915C424.501 144.823 424.558 144.74 424.63 144.671C424.701 144.602 424.786 144.548 424.879 144.512C424.972 144.477 425.071 144.46 425.171 144.464H440.371C440.471 144.46 440.57 144.477 440.663 144.512C440.756 144.548 440.841 144.602 440.912 144.671C440.984 144.74 441.041 144.823 441.08 144.915C441.119 145.006 441.139 145.105 441.139 145.204C441.139 145.304 441.119 145.403 441.08 145.494C441.041 145.586 440.984 145.669 440.912 145.738C440.841 145.807 440.756 145.861 440.663 145.897C440.57 145.932 440.471 145.949 440.371 145.945Z" fill="#292A2E"/>
<path d="M427.037 226.133H410.352C410.252 226.137 410.153 226.12 410.06 226.085C409.967 226.049 409.882 225.995 409.811 225.926C409.739 225.857 409.682 225.774 409.643 225.682C409.604 225.591 409.584 225.492 409.584 225.392C409.584 225.293 409.604 225.194 409.643 225.103C409.682 225.011 409.739 224.928 409.811 224.859C409.882 224.79 409.967 224.736 410.06 224.7C410.153 224.665 410.252 224.648 410.352 224.652H427.037C427.229 224.659 427.41 224.74 427.543 224.878C427.676 225.016 427.751 225.201 427.751 225.392C427.751 225.584 427.676 225.769 427.543 225.907C427.41 226.045 427.229 226.126 427.037 226.133Z" fill="#292A2E"/>
<path d="M440.371 239.5H425.171C424.974 239.5 424.786 239.422 424.647 239.283C424.508 239.144 424.43 238.956 424.43 238.759C424.43 238.562 424.508 238.374 424.647 238.235C424.786 238.096 424.974 238.018 425.171 238.018H440.371C440.568 238.018 440.756 238.096 440.895 238.235C441.034 238.374 441.112 238.562 441.112 238.759C441.112 238.956 441.034 239.144 440.895 239.283C440.756 239.422 440.568 239.5 440.371 239.5Z" fill="#292A2E"/>
<path d="M546.261 159.085H435.739C435.543 159.085 435.355 159.186 435.217 159.365C435.078 159.545 435 159.788 435 160.042C435 160.296 435.078 160.54 435.217 160.72C435.355 160.899 435.543 161 435.739 161H546.261C546.457 161 546.645 160.899 546.783 160.72C546.922 160.54 547 160.296 547 160.042C547 159.788 546.922 159.545 546.783 159.365C546.645 159.186 546.457 159.085 546.261 159.085Z" fill="#292A2E"/>
<path d="M625.266 158H561.734C561.54 158 561.353 158.053 561.215 158.146C561.077 158.24 561 158.367 561 158.5C561 158.633 561.077 158.76 561.215 158.854C561.353 158.947 561.54 159 561.734 159H625.266C625.46 159 625.647 158.947 625.785 158.854C625.923 158.76 626 158.633 626 158.5C626 158.367 625.923 158.24 625.785 158.146C625.647 158.053 625.46 158 625.266 158Z" fill="#0CBC8B"/>
<path d="M660.845 159H641.2C641.003 159 640.815 159.021 640.676 159.059C640.537 159.097 640.459 159.149 640.459 159.203C640.459 159.256 640.537 159.308 640.676 159.346C640.815 159.384 641.003 159.405 641.2 159.405H660.847C661.044 159.405 661.232 159.384 661.371 159.346C661.51 159.308 661.588 159.256 661.588 159.203C661.588 159.149 661.51 159.097 661.371 159.059C661.232 159.021 661.044 159 660.847 159H660.845Z" fill="#292A2E"/>
<path d="M590.757 186.039H435.54C435.44 186.043 435.341 186.026 435.248 185.991C435.155 185.955 435.07 185.901 434.999 185.832C434.927 185.763 434.87 185.68 434.831 185.588C434.792 185.497 434.772 185.398 434.772 185.298C434.772 185.199 434.792 185.1 434.831 185.009C434.87 184.917 434.927 184.834 434.999 184.765C435.07 184.696 435.155 184.642 435.248 184.606C435.341 184.571 435.44 184.554 435.54 184.558H590.757C590.857 184.554 590.956 184.571 591.049 184.606C591.142 184.642 591.227 184.696 591.298 184.765C591.37 184.834 591.427 184.917 591.466 185.009C591.505 185.1 591.525 185.199 591.525 185.298C591.525 185.398 591.505 185.497 591.466 185.588C591.427 185.68 591.37 185.763 591.298 185.832C591.227 185.901 591.142 185.955 591.049 185.991C590.956 186.026 590.857 186.043 590.757 186.039Z" fill="#292A2E"/>
<path d="M626.446 186.039H606.8C606.7 186.043 606.601 186.026 606.508 185.991C606.415 185.955 606.33 185.901 606.259 185.832C606.187 185.763 606.13 185.68 606.091 185.588C606.052 185.497 606.032 185.398 606.032 185.298C606.032 185.199 606.052 185.1 606.091 185.009C606.13 184.917 606.187 184.834 606.259 184.765C606.33 184.696 606.415 184.642 606.508 184.606C606.601 184.571 606.7 184.554 606.8 184.558H626.448C626.548 184.554 626.647 184.571 626.74 184.606C626.833 184.642 626.918 184.696 626.989 184.765C627.061 184.834 627.118 184.917 627.157 185.009C627.196 185.1 627.216 185.199 627.216 185.298C627.216 185.398 627.196 185.497 627.157 185.588C627.118 185.68 627.061 185.763 626.989 185.832C626.918 185.901 626.833 185.955 626.74 185.991C626.647 186.026 626.548 186.043 626.448 186.039H626.446Z" fill="#367CFF"/>
<path d="M452.225 172.675H435.54C435.343 172.675 435.155 172.597 435.016 172.458C434.877 172.319 434.799 172.131 434.799 171.934C434.799 171.737 434.877 171.549 435.016 171.41C435.155 171.271 435.343 171.193 435.54 171.193H452.225C452.422 171.193 452.61 171.271 452.749 171.41C452.888 171.549 452.966 171.737 452.966 171.934C452.966 172.131 452.888 172.319 452.749 172.458C452.61 172.597 452.422 172.675 452.225 172.675Z" fill="#0CBC8B"/>
<path d="M582 172.675H468.265C468.068 172.675 467.88 172.597 467.741 172.458C467.602 172.319 467.524 172.131 467.524 171.934C467.524 171.737 467.602 171.549 467.741 171.41C467.88 171.271 468.068 171.193 468.265 171.193H582C582.197 171.193 582.385 171.271 582.524 171.41C582.663 171.549 582.741 171.737 582.741 171.934C582.741 172.131 582.663 172.319 582.524 172.458C582.385 172.597 582.197 172.675 582 172.675Z" fill="#367CFF"/>
<path d="M660.974 172.675H599.84C599.644 172.675 599.455 172.597 599.316 172.458C599.177 172.319 599.099 172.131 599.099 171.934C599.099 171.737 599.177 171.549 599.316 171.41C599.455 171.271 599.644 171.193 599.84 171.193H660.974C661.171 171.193 661.359 171.271 661.498 171.41C661.637 171.549 661.715 171.737 661.715 171.934C661.715 172.131 661.637 172.319 661.498 172.458C661.359 172.597 661.171 172.675 660.974 172.675Z" fill="#292A2E"/>
<path d="M546.308 199.4H435.54C435.343 199.4 435.155 199.322 435.016 199.183C434.877 199.044 434.799 198.856 434.799 198.659C434.799 198.462 434.877 198.274 435.016 198.135C435.155 197.996 435.343 197.918 435.54 197.918H546.308C546.505 197.918 546.693 197.996 546.832 198.135C546.971 198.274 547.049 198.462 547.049 198.659C547.049 198.856 546.971 199.044 546.832 199.183C546.693 199.322 546.505 199.4 546.308 199.4Z" fill="#292A2E"/>
<path d="M596.813 199.4H562.348C562.151 199.4 561.963 199.322 561.824 199.183C561.685 199.044 561.607 198.856 561.607 198.659C561.607 198.462 561.685 198.274 561.824 198.135C561.963 197.996 562.151 197.918 562.348 197.918H596.813C597.01 197.918 597.198 197.996 597.337 198.135C597.476 198.274 597.554 198.462 597.554 198.659C597.554 198.856 597.476 199.044 597.337 199.183C597.198 199.322 597.01 199.4 596.813 199.4Z" fill="#0CBC8B"/>
<path d="M660.845 199.4H611.564C611.368 199.4 611.179 199.322 611.04 199.183C610.901 199.044 610.823 198.856 610.823 198.659C610.823 198.462 610.901 198.274 611.04 198.135C611.179 197.996 611.368 197.918 611.564 197.918H660.845C661.041 197.918 661.23 197.996 661.369 198.135C661.508 198.274 661.586 198.462 661.586 198.659C661.586 198.856 661.508 199.044 661.369 199.183C661.23 199.322 661.041 199.4 660.845 199.4Z" fill="#292A2E"/>
<path d="M452.225 212.769H435.54C435.343 212.769 435.155 212.691 435.016 212.552C434.877 212.413 434.799 212.225 434.799 212.028C434.799 211.831 434.877 211.643 435.016 211.504C435.155 211.365 435.343 211.287 435.54 211.287H452.225C452.422 211.287 452.61 211.365 452.749 211.504C452.888 211.643 452.966 211.831 452.966 212.028C452.966 212.225 452.888 212.413 452.749 212.552C452.61 212.691 452.422 212.769 452.225 212.769Z" fill="#367CFF"/>
<path d="M582 212.769H468.265C468.068 212.769 467.88 212.691 467.741 212.552C467.602 212.413 467.524 212.225 467.524 212.028C467.524 211.831 467.602 211.643 467.741 211.504C467.88 211.365 468.068 211.287 468.265 211.287H582C582.197 211.287 582.385 211.365 582.524 211.504C582.663 211.643 582.741 211.831 582.741 212.028C582.741 212.225 582.663 212.413 582.524 212.552C582.385 212.691 582.197 212.769 582 212.769Z" fill="#0CBC8B"/>
<path d="M543.344 266.228H432.577C432.38 266.228 432.192 266.15 432.053 266.011C431.914 265.872 431.836 265.684 431.836 265.487C431.836 265.29 431.914 265.102 432.053 264.963C432.192 264.824 432.38 264.746 432.577 264.746H543.344C543.541 264.746 543.729 264.824 543.868 264.963C544.007 265.102 544.085 265.29 544.085 265.487C544.085 265.684 544.007 265.872 543.868 266.011C543.729 266.15 543.541 266.228 543.344 266.228Z" fill="#292A2E"/>
<path d="M623.483 266.228H559.383C559.186 266.228 558.998 266.15 558.859 266.011C558.72 265.872 558.642 265.684 558.642 265.487C558.642 265.29 558.72 265.102 558.859 264.963C558.998 264.824 559.186 264.746 559.383 264.746H623.483C623.679 264.746 623.868 264.824 624.007 264.963C624.146 265.102 624.224 265.29 624.224 265.487C624.224 265.684 624.146 265.872 624.007 266.011C623.868 266.15 623.679 266.228 623.483 266.228Z" fill="#367CFF"/>
<path d="M478.9 252.863H432.577C432.38 252.863 432.192 252.785 432.053 252.646C431.914 252.507 431.836 252.319 431.836 252.122C431.836 251.925 431.914 251.737 432.053 251.598C432.192 251.459 432.38 251.381 432.577 251.381H478.9C479.097 251.381 479.285 251.459 479.424 251.598C479.563 251.737 479.641 251.925 479.641 252.122C479.641 252.319 479.563 252.507 479.424 252.646C479.285 252.785 479.097 252.863 478.9 252.863Z" fill="#0CBC8B"/>
<path d="M579.033 252.863H494.933C494.736 252.863 494.548 252.785 494.409 252.646C494.27 252.507 494.192 252.319 494.192 252.122C494.192 251.925 494.27 251.737 494.409 251.598C494.548 251.459 494.736 251.381 494.933 251.381H579.033C579.23 251.381 579.418 251.459 579.557 251.598C579.696 251.737 579.774 251.925 579.774 252.122C579.774 252.319 579.696 252.507 579.557 252.646C579.418 252.785 579.23 252.863 579.033 252.863Z" fill="#367CFF"/>
<path d="M658.011 252.863H596.877C596.68 252.863 596.492 252.785 596.353 252.646C596.214 252.507 596.136 252.319 596.136 252.122C596.136 251.925 596.214 251.737 596.353 251.598C596.492 251.459 596.68 251.381 596.877 251.381H658.011C658.208 251.381 658.396 251.459 658.535 251.598C658.674 251.737 658.752 251.925 658.752 252.122C658.752 252.319 658.674 252.507 658.535 252.646C658.396 252.785 658.208 252.863 658.011 252.863Z" fill="#292A2E"/>
<path d="M587.794 292.957H432.577C432.38 292.957 432.192 292.879 432.053 292.74C431.914 292.601 431.836 292.413 431.836 292.216C431.836 292.019 431.914 291.831 432.053 291.692C432.192 291.553 432.38 291.475 432.577 291.475H587.794C587.991 291.475 588.179 291.553 588.318 291.692C588.457 291.831 588.535 292.019 588.535 292.216C588.535 292.413 588.457 292.601 588.318 292.74C588.179 292.879 587.991 292.957 587.794 292.957Z" fill="#367CFF"/>
<path d="M633.483 292.957H603.835C603.638 292.957 603.45 292.879 603.311 292.74C603.172 292.601 603.094 292.413 603.094 292.216C603.094 292.019 603.172 291.831 603.311 291.692C603.45 291.553 603.638 291.475 603.835 291.475H633.483C633.679 291.475 633.868 291.553 634.007 291.692C634.146 291.831 634.224 292.019 634.224 292.216C634.224 292.413 634.146 292.601 634.007 292.74C633.868 292.879 633.679 292.957 633.483 292.957Z" fill="#292A2E"/>
<path d="M449.261 279.592H432.577C432.477 279.596 432.378 279.579 432.285 279.544C432.192 279.508 432.107 279.454 432.036 279.385C431.964 279.316 431.907 279.233 431.868 279.141C431.829 279.05 431.809 278.951 431.809 278.851C431.809 278.752 431.829 278.653 431.868 278.562C431.907 278.47 431.964 278.387 432.036 278.318C432.107 278.249 432.192 278.195 432.285 278.159C432.378 278.124 432.477 278.107 432.577 278.111H449.261C449.361 278.107 449.46 278.124 449.553 278.159C449.646 278.195 449.731 278.249 449.802 278.318C449.874 278.387 449.931 278.47 449.97 278.562C450.009 278.653 450.029 278.752 450.029 278.851C450.029 278.951 450.009 279.05 449.97 279.141C449.931 279.233 449.874 279.316 449.802 279.385C449.731 279.454 449.646 279.508 449.553 279.544C449.46 279.579 449.361 279.596 449.261 279.592Z" fill="#367CFF"/>
<path d="M579.033 279.592H465.3C465.2 279.596 465.101 279.579 465.008 279.544C464.915 279.508 464.83 279.454 464.759 279.385C464.687 279.316 464.63 279.233 464.591 279.141C464.552 279.05 464.532 278.951 464.532 278.851C464.532 278.752 464.552 278.653 464.591 278.562C464.63 278.47 464.687 278.387 464.759 278.318C464.83 278.249 464.915 278.195 465.008 278.159C465.101 278.124 465.2 278.107 465.3 278.111H579.033C579.133 278.107 579.232 278.124 579.325 278.159C579.418 278.195 579.503 278.249 579.574 278.318C579.646 278.387 579.703 278.47 579.742 278.562C579.781 278.653 579.801 278.752 579.801 278.851C579.801 278.951 579.781 279.05 579.742 279.141C579.703 279.233 579.646 279.316 579.574 279.385C579.503 279.454 579.418 279.508 579.325 279.544C579.232 279.579 579.133 279.596 579.033 279.592Z" fill="#292A2E"/>
<path d="M658.011 279.592H596.877C596.777 279.596 596.678 279.579 596.585 279.544C596.492 279.508 596.407 279.454 596.336 279.385C596.264 279.316 596.207 279.233 596.168 279.141C596.129 279.05 596.109 278.951 596.109 278.851C596.109 278.752 596.129 278.653 596.168 278.562C596.207 278.47 596.264 278.387 596.336 278.318C596.407 278.249 596.492 278.195 596.585 278.159C596.678 278.124 596.777 278.107 596.877 278.111H658.011C658.111 278.107 658.21 278.124 658.303 278.159C658.396 278.195 658.481 278.249 658.552 278.318C658.624 278.387 658.681 278.47 658.72 278.562C658.759 278.653 658.779 278.752 658.779 278.851C658.779 278.951 658.759 279.05 658.72 279.141C658.681 279.233 658.624 279.316 658.552 279.385C658.481 279.454 658.396 279.508 658.303 279.544C658.21 279.579 658.111 279.596 658.011 279.592Z" fill="#0CBC8B"/>
<path d="M543.344 306.322H432.577C432.38 306.322 432.192 306.244 432.053 306.105C431.914 305.966 431.836 305.778 431.836 305.581C431.836 305.384 431.914 305.196 432.053 305.057C432.192 304.918 432.38 304.84 432.577 304.84H543.344C543.541 304.84 543.729 304.918 543.868 305.057C544.007 305.196 544.085 305.384 544.085 305.581C544.085 305.778 544.007 305.966 543.868 306.105C543.729 306.244 543.541 306.322 543.344 306.322Z" fill="#0CBC8B"/>
<path d="M593.85 306.322H559.385C559.188 306.322 559 306.244 558.861 306.105C558.722 305.966 558.644 305.778 558.644 305.581C558.644 305.384 558.722 305.196 558.861 305.057C559 304.918 559.188 304.84 559.385 304.84H593.85C594.047 304.84 594.235 304.918 594.374 305.057C594.513 305.196 594.591 305.384 594.591 305.581C594.591 305.778 594.513 305.966 594.374 306.105C594.235 306.244 594.047 306.322 593.85 306.322Z" fill="#292A2E"/>
<path d="M657.882 306.322H608.6C608.403 306.322 608.215 306.244 608.076 306.105C607.937 305.966 607.859 305.778 607.859 305.581C607.859 305.384 607.937 305.196 608.076 305.057C608.215 304.918 608.403 304.84 608.6 304.84H657.881C658.078 304.84 658.266 304.918 658.405 305.057C658.544 305.196 658.622 305.384 658.622 305.581C658.622 305.778 658.544 305.966 658.405 306.105C658.266 306.244 658.078 306.322 657.881 306.322H657.882Z" fill="#367CFF"/>
<path d="M381.97 313.622C381.873 313.622 381.776 313.603 381.686 313.566C381.597 313.529 381.515 313.474 381.446 313.406C381.377 313.337 381.323 313.255 381.285 313.165C381.248 313.076 381.229 312.979 381.229 312.882V109.252C381.229 109.055 381.307 108.867 381.446 108.728C381.585 108.589 381.773 108.511 381.97 108.511C382.167 108.511 382.355 108.589 382.494 108.728C382.633 108.867 382.711 109.055 382.711 109.252V312.882C382.711 312.979 382.692 313.076 382.655 313.165C382.617 313.255 382.563 313.337 382.494 313.406C382.425 313.474 382.343 313.529 382.253 313.566C382.164 313.603 382.067 313.622 381.97 313.622Z" fill="#292A2E"/>
<path d="M348.086 118.505H316C315.803 118.505 315.615 118.427 315.476 118.288C315.337 118.149 315.259 117.961 315.259 117.764C315.259 117.567 315.337 117.379 315.476 117.24C315.615 117.101 315.803 117.023 316 117.023H348.082C348.279 117.023 348.467 117.101 348.606 117.24C348.745 117.379 348.823 117.567 348.823 117.764C348.823 117.961 348.745 118.149 348.606 118.288C348.467 118.427 348.279 118.505 348.082 118.505H348.086Z" fill="#292A2E"/>
<path d="M338.422 133.117H316C315.9 133.121 315.801 133.104 315.708 133.069C315.615 133.033 315.53 132.979 315.459 132.91C315.387 132.841 315.33 132.758 315.291 132.666C315.252 132.575 315.232 132.476 315.232 132.376C315.232 132.277 315.252 132.178 315.291 132.087C315.33 131.995 315.387 131.912 315.459 131.843C315.53 131.774 315.615 131.72 315.708 131.684C315.801 131.649 315.9 131.632 316 131.636H338.418C338.61 131.643 338.791 131.724 338.924 131.862C339.057 132 339.132 132.185 339.132 132.376C339.132 132.568 339.057 132.753 338.924 132.891C338.791 133.029 338.61 133.11 338.418 133.117H338.422Z" fill="#292A2E"/>
<path d="M358.135 147.73H316C315.803 147.73 315.615 147.652 315.476 147.513C315.337 147.374 315.259 147.186 315.259 146.989C315.259 146.792 315.337 146.604 315.476 146.465C315.615 146.326 315.803 146.248 316 146.248H358.131C358.328 146.248 358.516 146.326 358.655 146.465C358.794 146.604 358.872 146.792 358.872 146.989C358.872 147.186 358.794 147.374 358.655 147.513C358.516 147.652 358.328 147.73 358.131 147.73H358.135Z" fill="#292A2E"/>
<path d="M365.994 162.342H330.821C330.721 162.346 330.622 162.329 330.529 162.294C330.436 162.258 330.351 162.204 330.28 162.135C330.208 162.066 330.151 161.983 330.112 161.891C330.073 161.8 330.053 161.701 330.053 161.601C330.053 161.502 330.073 161.403 330.112 161.312C330.151 161.22 330.208 161.137 330.28 161.068C330.351 160.999 330.436 160.945 330.529 160.909C330.622 160.874 330.721 160.857 330.821 160.861H365.994C366.094 160.857 366.193 160.874 366.286 160.909C366.379 160.945 366.464 160.999 366.535 161.068C366.607 161.137 366.664 161.22 366.703 161.312C366.742 161.403 366.762 161.502 366.762 161.601C366.762 161.701 366.742 161.8 366.703 161.891C366.664 161.983 366.607 162.066 366.535 162.135C366.464 162.204 366.379 162.258 366.286 162.294C366.193 162.329 366.094 162.346 365.994 162.342Z" fill="#292A2E"/>
<path d="M348.987 176.955H330.821C330.624 176.955 330.436 176.877 330.297 176.738C330.158 176.599 330.08 176.411 330.08 176.214C330.08 176.017 330.158 175.829 330.297 175.69C330.436 175.551 330.624 175.473 330.821 175.473H348.987C349.184 175.473 349.372 175.551 349.511 175.69C349.65 175.829 349.728 176.017 349.728 176.214C349.728 176.411 349.65 176.599 349.511 176.738C349.372 176.877 349.184 176.955 348.987 176.955Z" fill="#292A2E"/>
<path d="M362.9 191.568H330.821C330.624 191.568 330.436 191.49 330.297 191.351C330.158 191.212 330.08 191.023 330.08 190.827C330.08 190.63 330.158 190.442 330.297 190.303C330.436 190.164 330.624 190.086 330.821 190.086H362.9C363.097 190.086 363.285 190.164 363.424 190.303C363.563 190.442 363.641 190.63 363.641 190.827C363.641 191.023 363.563 191.212 363.424 191.351C363.285 191.49 363.097 191.568 362.9 191.568Z" fill="#292A2E"/>
<path d="M340.741 206.18H316C315.803 206.18 315.615 206.102 315.476 205.963C315.337 205.824 315.259 205.635 315.259 205.439C315.259 205.242 315.337 205.054 315.476 204.915C315.615 204.776 315.803 204.698 316 204.698H340.737C340.934 204.698 341.122 204.776 341.261 204.915C341.4 205.054 341.478 205.242 341.478 205.439C341.478 205.635 341.4 205.824 341.261 205.963C341.122 206.102 340.934 206.18 340.737 206.18H340.741Z" fill="#292A2E"/>
<path d="M332.237 220.793H316C315.803 220.793 315.615 220.715 315.476 220.576C315.337 220.437 315.259 220.248 315.259 220.052C315.259 219.855 315.337 219.667 315.476 219.528C315.615 219.389 315.803 219.311 316 219.311H332.233C332.43 219.311 332.618 219.389 332.757 219.528C332.896 219.667 332.974 219.855 332.974 220.052C332.974 220.248 332.896 220.437 332.757 220.576C332.618 220.715 332.43 220.793 332.233 220.793H332.237Z" fill="#292A2E"/>
<path d="M397.311 115.371V115.638L406.572 119.075C406.704 119.129 406.817 119.221 406.897 119.34C406.976 119.459 407.017 119.599 407.016 119.742V119.994C407.018 120.106 406.991 120.216 406.939 120.314C406.886 120.413 406.81 120.496 406.716 120.557C406.622 120.623 406.513 120.664 406.399 120.677C406.286 120.69 406.17 120.674 406.064 120.631L395.604 116.541C395.473 116.489 395.361 116.399 395.282 116.283C395.203 116.167 395.16 116.03 395.159 115.889V115.134C395.158 114.993 395.2 114.855 395.279 114.738C395.359 114.622 395.472 114.532 395.604 114.482L406.064 110.382C406.15 110.353 406.239 110.337 406.33 110.337C406.467 110.34 406.601 110.381 406.716 110.456C406.81 110.52 406.887 110.606 406.94 110.707C406.992 110.808 407.018 110.92 407.016 111.034V111.285C407.019 111.426 406.978 111.565 406.898 111.682C406.819 111.799 406.705 111.888 406.572 111.937L397.311 115.371Z" fill="#367CFF"/>
<path d="M415.669 107.355L410.128 124.32C410.083 124.462 409.994 124.586 409.874 124.674C409.755 124.761 409.61 124.809 409.461 124.809C409.353 124.811 409.247 124.786 409.151 124.737C409.055 124.688 408.973 124.615 408.912 124.527C408.846 124.439 408.801 124.338 408.78 124.23C408.76 124.122 408.765 124.011 408.794 123.905L414.335 106.955C414.383 106.811 414.474 106.686 414.597 106.597C414.719 106.507 414.866 106.458 415.017 106.455C415.124 106.455 415.23 106.48 415.325 106.529C415.421 106.579 415.503 106.65 415.565 106.737C415.631 106.824 415.674 106.926 415.692 107.033C415.711 107.141 415.703 107.251 415.669 107.355Z" fill="#367CFF"/>
<path d="M429.276 115.134V115.889C429.278 116.028 429.239 116.165 429.162 116.281C429.086 116.397 428.976 116.488 428.847 116.541L418.371 120.631C418.267 120.674 418.154 120.69 418.043 120.677C417.931 120.664 417.825 120.623 417.734 120.557C417.639 120.496 417.561 120.413 417.507 120.315C417.453 120.217 417.424 120.106 417.423 119.994V119.742C417.421 119.597 417.464 119.455 417.547 119.335C417.629 119.216 417.747 119.125 417.883 119.075L427.143 115.638V115.371L417.883 111.933C417.747 111.888 417.628 111.8 417.546 111.683C417.463 111.565 417.42 111.425 417.423 111.281V111.03C417.424 110.916 417.452 110.803 417.507 110.702C417.561 110.602 417.639 110.516 417.734 110.452C417.849 110.377 417.982 110.336 418.119 110.333C418.205 110.332 418.291 110.347 418.371 110.378L428.847 114.478C428.977 114.53 429.089 114.621 429.166 114.738C429.242 114.855 429.281 114.994 429.276 115.134Z" fill="#367CFF"/>
<path d="M762.121 475.96H566.615C565.392 475.96 564.182 475.7 563.066 475.199C561.951 474.697 560.954 473.965 560.142 473.049C559.33 472.134 558.721 471.058 558.356 469.89C557.99 468.722 557.877 467.491 558.022 466.276L563.253 422.624C563.505 420.522 564.519 418.586 566.102 417.181C567.686 415.776 569.729 415 571.846 415H762.121C764.416 415 766.617 415.912 768.24 417.535C769.863 419.158 770.775 421.359 770.775 423.654V467.307C770.774 469.602 769.863 471.803 768.24 473.425C766.617 475.048 764.416 475.96 762.121 475.96Z" fill="#292A2E"/>
<path d="M619.5 476.37L627.861 444.285C628.045 443.58 628.08 442.844 627.964 442.125C627.848 441.405 627.584 440.718 627.187 440.106C626.791 439.495 626.272 438.972 625.662 438.573C625.053 438.173 624.367 437.905 623.648 437.785C617.699 436.661 616.974 444.857 615.848 448.785L611.555 424.562C610.9 418.028 602.116 417.814 601.466 424.324C601.419 424.316 601.372 424.325 601.33 424.347C601.537 412.447 588.363 413.368 590.618 423.797C590.57 423.829 590.529 423.869 590.495 423.915C588.295 418.146 579.278 420.845 580.495 426.964L581.195 431.364C581.153 431.32 581.102 431.284 581.046 431.259C580.991 431.234 580.93 431.221 580.869 431.22C580.808 431.218 580.747 431.229 580.69 431.251C580.633 431.273 580.581 431.307 580.537 431.349C577.512 427.066 570.096 430.208 571.237 435.57L577.155 472.721C580.54 496.749 615.9 504.812 619.5 476.37Z" fill="#E98862"/>
<g opacity="0.2">
<path d="M605.6 448.318C604.3 448.196 601.52 425.589 601 424.882C600.978 424.755 601.007 424.625 601.081 424.52C601.154 424.415 601.267 424.344 601.393 424.321C601.52 424.299 601.65 424.328 601.755 424.402C601.86 424.476 601.932 424.588 601.954 424.715L606 447.756C606.011 447.819 606.01 447.884 605.995 447.947C605.981 448.009 605.955 448.068 605.918 448.121C605.88 448.173 605.833 448.217 605.779 448.251C605.724 448.285 605.663 448.308 605.6 448.318Z" fill="#0C0C0C"/>
</g>
<g opacity="0.2">
<path d="M595.483 450.386C595.357 450.405 595.229 450.373 595.127 450.298C595.024 450.224 594.955 450.111 594.934 449.986L590.411 424.272C590.389 424.146 590.418 424.015 590.491 423.91C590.565 423.805 590.678 423.733 590.804 423.711C592.131 423.59 595.359 449.278 595.888 449.819C595.9 449.883 595.898 449.949 595.884 450.012C595.87 450.075 595.843 450.135 595.806 450.188C595.768 450.241 595.72 450.286 595.664 450.32C595.609 450.354 595.547 450.376 595.483 450.386Z" fill="#0C0C0C"/>
</g>
<g opacity="0.2">
<path d="M584.543 452.689C584.417 452.708 584.289 452.676 584.187 452.601C584.084 452.527 584.015 452.414 583.994 452.289L580.386 431.777C580.368 431.653 580.4 431.526 580.473 431.424C580.547 431.322 580.658 431.253 580.782 431.232C580.905 431.21 581.033 431.237 581.137 431.308C581.241 431.379 581.313 431.487 581.339 431.61L584.948 452.121C584.96 452.185 584.958 452.251 584.944 452.314C584.93 452.378 584.903 452.438 584.866 452.491C584.828 452.544 584.78 452.588 584.724 452.623C584.669 452.657 584.607 452.679 584.543 452.689Z" fill="#0C0C0C"/>
</g>
<path d="M703.232 342.853C703.461 342.823 706.006 385.044 755.053 381.363C789.009 378.819 801.116 342.794 801.894 342.794C798.233 342.016 792.068 340.884 790.442 340.016C785.095 337.144 777.479 334.154 775.756 323.771C774.763 317.786 776.448 287.171 775.929 281.115L724.808 292.748C725.536 305.537 730.634 335.183 712.768 340.429C709.8 341.3 706.594 342.1 703.232 342.853Z" fill="#E98862"/>
<path d="M726.246 312.694C746.83 314.283 773.254 305.548 778.229 278.081L782.718 253.297C787.693 225.829 777.299 200.95 751.437 196.266C725.575 191.581 702.212 210.347 697.237 237.814L695.249 248.786C694.632 252.565 694.274 256.382 694.177 260.21C693.844 270.325 693.377 285.71 698.377 297.01C703.107 307.683 713.1 311.679 726.246 312.694Z" fill="#E98862"/>
<path d="M772.407 194.858C764.236 192.31 755.761 190.868 747.207 190.571C746.378 187.306 744.531 184.771 741.815 183.707C737.293 181.94 731.768 184.786 728.093 190.269C726.05 187.137 723.281 184.315 719.611 183.169C709.487 180.016 708.984 194.56 708.984 194.56C708.984 194.56 692.931 178.719 692.429 198.923C691.823 223.368 696.313 230.537 699.591 232.347C706.063 235.921 710.883 235.317 713.444 240.575C721.2 256.498 713.598 301.349 722.573 306.965C736.323 315.565 764.486 315.865 773.634 315.211C777.151 314.959 780.443 310.882 781.925 307.681C786.709 297.349 797.379 273.925 800.348 264.238C805.828 246.364 805.415 205.636 772.407 194.858Z" fill="#0C0C0C"/>
<path d="M716.428 290.946C724.368 290.084 729.883 280.89 729.021 272.946C728.159 265.002 721.247 261.326 713.306 262.187L709.792 267.952L709.601 291.684L716.428 290.946Z" fill="#E98862"/>
<path d="M849.069 584.221L849.315 584.235C849.315 584.235 849.138 579.494 849.069 584.221Z" fill="#333333"/>
<path d="M632.721 436.273C634.272 454.486 641.813 568.111 643.303 590.544H848.721C849.881 570.311 855.092 481.844 859.492 442.274C863.692 404.519 871.934 385.616 865.892 374.454C856.021 356.212 829.047 345.67 810.655 343.18C799.423 341.66 797.109 340.57 792.531 340.57H713.441C705.92 340.57 657.892 347.816 648.047 355.055C620.8 375.091 629.431 397.678 632.721 436.273Z" fill="#367CFF"/>
<path d="M892.58 589.354C898.622 589.354 904.575 587.894 909.931 585.098C915.288 582.303 919.889 578.254 923.344 573.297C926.799 568.34 929.005 562.622 929.775 556.629C930.544 550.636 929.854 544.546 927.763 538.877C925.641 533.122 875.889 401.377 866.418 376.963L796.285 405.38C801.61 419.105 820.906 471.131 836.407 513.04L810.654 510.24L802.548 584.807L888.522 589.133C889.87 589.28 891.224 589.354 892.58 589.354Z" fill="#367CFF"/>
<path d="M852.555 443.039L847.508 590.526L848.873 590.572L853.921 443.086L852.555 443.039Z" fill="#0C0C0C"/>
<path d="M603.007 589.354C596.965 589.354 591.012 587.894 585.656 585.098C580.3 582.302 575.698 578.253 572.243 573.297C568.789 568.34 566.583 562.622 565.813 556.629C565.044 550.636 565.734 544.546 567.825 538.877C569.946 533.122 621.783 400.794 631.254 376.383L699.302 405.383C693.977 419.108 674.681 471.134 659.18 513.043L684.933 510.243L693.039 584.81L607.065 589.136C605.717 589.282 604.363 589.355 603.007 589.354Z" fill="#367CFF"/>
<path d="M659.019 504.3C658.901 504.3 658.785 504.272 658.68 504.219C658.574 504.166 658.483 504.088 658.414 503.993C658.344 503.898 658.298 503.787 658.279 503.671C658.26 503.555 658.269 503.435 658.305 503.323L676.512 446C676.54 445.904 676.586 445.814 676.649 445.736C676.712 445.658 676.79 445.593 676.879 445.546C676.967 445.498 677.064 445.469 677.164 445.46C677.264 445.45 677.365 445.461 677.46 445.492C677.556 445.522 677.644 445.571 677.72 445.637C677.797 445.702 677.859 445.782 677.904 445.871C677.949 445.961 677.975 446.059 677.982 446.159C677.988 446.259 677.974 446.359 677.941 446.454L659.734 503.771C659.687 503.924 659.592 504.058 659.463 504.153C659.335 504.248 659.179 504.3 659.019 504.3Z" fill="#0C0C0C"/>
<path d="M892.34 477.363L877.561 590.843H645.16L660.481 473.194C660.988 469.306 662.892 465.736 665.838 463.148C668.784 460.561 672.57 459.134 676.491 459.133H876.321C878.618 459.132 880.889 459.621 882.982 460.567C885.075 461.513 886.942 462.895 888.458 464.621C889.974 466.346 891.105 468.376 891.774 470.573C892.444 472.77 892.637 475.085 892.34 477.363Z" fill="white"/>
<path d="M889.38 463.813C888.186 462.454 886.786 461.289 885.231 460.363C884.433 459.884 883.597 459.473 882.731 459.133C880.691 458.322 878.516 457.905 876.321 457.903H676.491C672.273 457.914 668.203 459.455 665.034 462.239C661.866 465.023 659.815 468.862 659.261 473.043L643.92 590.843H646.4L661.7 473.353C662.176 469.764 663.937 466.47 666.657 464.081C669.377 461.692 672.871 460.371 676.491 460.363H876.321C878.443 460.365 880.54 460.819 882.473 461.695C884.406 462.571 886.13 463.849 887.53 465.443C888.93 467.037 889.975 468.912 890.594 470.942C891.213 472.971 891.393 475.109 891.121 477.214L876.321 590.843H878.801L893.551 477.523C893.871 475.073 893.664 472.582 892.945 470.218C892.226 467.854 891.01 465.67 889.38 463.813Z" fill="#292A2E"/>
<path d="M905.9 477.363L891.121 590.843H658.72L674.041 473.194C674.408 470.38 675.509 467.713 677.235 465.46C678.961 463.207 681.25 461.449 683.871 460.363C685.829 459.546 687.93 459.128 690.051 459.133H889.89C892.186 459.134 894.456 459.624 896.547 460.571C898.639 461.518 900.504 462.9 902.02 464.626C903.535 466.351 904.665 468.379 905.334 470.576C906.003 472.772 906.196 475.086 905.9 477.363Z" fill="#292A2E"/>
<path d="M902.94 463.813C901.309 461.958 899.302 460.472 897.051 459.453C894.801 458.434 892.36 457.905 889.89 457.903H690.051C686.923 457.908 683.855 458.758 681.17 460.363C678.911 461.708 676.986 463.548 675.54 465.744C674.094 467.941 673.164 470.436 672.821 473.043L657.481 590.843H659.96L675.26 473.353C675.735 469.764 677.496 466.47 680.216 464.081C682.936 461.692 686.43 460.371 690.05 460.363H889.89C892.012 460.364 894.109 460.817 896.042 461.693C897.975 462.569 899.699 463.847 901.099 465.441C902.498 467.036 903.542 468.911 904.159 470.941C904.777 472.971 904.954 475.11 904.68 477.214L889.89 590.843H892.36L907.121 477.523C907.437 475.072 907.228 472.582 906.507 470.218C905.786 467.854 904.57 465.67 902.94 463.813Z" fill="#292A2E"/>
<path d="M11.95 591.545H925.369C925.555 591.545 925.733 591.471 925.864 591.34C925.995 591.209 926.069 591.031 926.069 590.845C926.069 590.659 925.995 590.481 925.864 590.35C925.733 590.219 925.555 590.145 925.369 590.145H11.95C11.7643 590.145 11.5863 590.219 11.455 590.35C11.3238 590.481 11.25 590.659 11.25 590.845C11.25 591.031 11.3238 591.209 11.455 591.34C11.5863 591.471 11.7643 591.545 11.95 591.545Z" fill="#292A2E"/>
<g opacity="0.65">
<path d="M11.95 591.545H925.369C925.555 591.545 925.733 591.471 925.864 591.34C925.995 591.209 926.069 591.031 926.069 590.845C926.069 590.659 925.995 590.481 925.864 590.35C925.733 590.219 925.555 590.145 925.369 590.145H11.95C11.7643 590.145 11.5863 590.219 11.455 590.35C11.3238 590.481 11.25 590.659 11.25 590.845C11.25 591.031 11.3238 591.209 11.455 591.34C11.5863 591.471 11.7643 591.545 11.95 591.545Z" fill="#292A2E"/>
</g>
<path d="M565.509 552.459L568.725 467.908L613.15 465.557L617.192 552.459H565.509Z" fill="#367CFF"/>
</g>
<defs>
<clipPath id="clip0_1_3">
<rect width="930.078" height="591.545" fill="white"/>
</clipPath>
</defs>
</svg>
