<svg width="1444" height="1351" viewBox="0 0 1444 1351" fill="none" xmlns="http://www.w3.org/2000/svg">
<path d="M923.964 1033.49C889.766 1033.57 856.483 1016.7 829.167 985.438C801.85 1016.7 768.567 1033.57 734.368 1033.49C731.557 1033.49 728.753 1033.38 725.98 1033.15V1123.49C726.014 1204.7 747.287 1279.53 793.978 1319.02L829.165 1348.7L864.352 1319.02C911.044 1279.53 932.315 1204.7 932.349 1123.49V1033.14C929.577 1033.38 926.769 1033.49 923.964 1033.49Z" fill="white"/>
<path d="M829.165 1350.4L793.501 1320.32C770.879 1301.18 753.419 1273.34 741.606 1237.57C730.76 1204.72 725.018 1165.27 725 1123.49V1031.57L726.035 1031.66C728.675 1031.88 731.479 1032 734.369 1032C768.362 1032.16 801.454 1015.38 828.576 984.244L829.164 983.57L829.752 984.244C856.875 1015.39 889.968 1032.16 923.964 1032C926.854 1032 929.657 1031.88 932.297 1031.66L933.332 1031.57V1123.49C933.314 1165.27 927.572 1204.72 916.726 1237.57C904.912 1273.35 887.452 1301.19 864.831 1320.32L829.165 1350.4ZM726.96 1034.71V1123.49C726.997 1210.67 751.6 1281.47 794.454 1317.71L829.165 1346.99L863.877 1317.71C906.731 1281.46 931.332 1210.67 931.369 1123.49V1034.71C929 1034.89 926.514 1034.98 923.962 1034.98C889.795 1035.14 856.52 1018.4 829.165 987.296C801.81 1018.4 768.535 1035.14 734.368 1034.98C731.816 1034.98 729.33 1034.89 726.96 1034.71Z" fill="#292A2E"/>
<path d="M853.981 1102.66V1137.63C853.981 1139.03 853.616 1140.37 852.965 1141.36C852.314 1142.35 851.431 1142.9 850.511 1142.9C849.59 1142.9 848.708 1142.35 848.057 1141.36C847.406 1140.37 847.04 1139.03 847.04 1137.63V1102.66C847.04 1089.08 839.021 1078.03 829.165 1078.03C819.308 1078.03 811.289 1089.08 811.289 1102.66V1140.21C811.289 1141.61 810.923 1142.95 810.272 1143.94C809.622 1144.93 808.739 1145.48 807.818 1145.48C806.898 1145.48 806.015 1144.93 805.364 1143.94C804.713 1142.95 804.348 1141.61 804.348 1140.21V1102.66C804.348 1083.26 815.478 1067.48 829.165 1067.48C842.851 1067.48 853.981 1083.26 853.981 1102.66Z" fill="#292A2E"/>
<path d="M853.981 1137.63C853.981 1139.03 853.616 1140.37 852.965 1141.36C852.314 1142.35 851.431 1142.9 850.511 1142.9C849.59 1142.9 848.708 1142.35 848.057 1141.36C847.406 1140.37 847.04 1139.03 847.04 1137.63V1102.66C847.04 1089.08 839.021 1078.03 829.165 1078.03C819.308 1078.03 811.289 1089.08 811.289 1102.66V1140.21C811.289 1141.61 810.923 1142.95 810.272 1143.94C809.622 1144.93 808.739 1145.48 807.818 1145.48C806.898 1145.48 806.015 1144.93 805.364 1143.94C804.713 1142.95 804.348 1141.61 804.348 1140.21V1102.66C804.348 1083.26 815.478 1067.48 829.165 1067.48C842.851 1067.48 853.981 1083.26 853.981 1102.66V1137.63Z" fill="#292A2E"/>
<path d="M861.727 1133.71H796.603C792.805 1133.71 789.726 1138.39 789.726 1144.16V1237.38C789.726 1243.15 792.805 1247.82 796.603 1247.82H861.727C865.525 1247.82 868.604 1243.15 868.604 1237.38V1144.16C868.604 1138.39 865.525 1133.71 861.727 1133.71Z" fill="#367CFF"/>
<path d="M822.682 1181.54C822.682 1183.39 823.025 1185.2 823.67 1186.77C824.316 1188.34 825.239 1189.6 826.334 1190.41V1205.55C826.345 1206.68 826.648 1207.75 827.178 1208.55C827.708 1209.34 828.421 1209.78 829.165 1209.78C829.908 1209.78 830.622 1209.34 831.152 1208.55C831.681 1207.75 831.985 1206.68 831.996 1205.55V1190.41C833.038 1189.64 833.925 1188.46 834.566 1187C835.207 1185.53 835.578 1183.83 835.641 1182.07C835.703 1180.32 835.455 1178.57 834.922 1177C834.388 1175.44 833.59 1174.13 832.608 1173.19C831.627 1172.26 830.499 1171.74 829.342 1171.69C828.184 1171.64 827.039 1172.07 826.026 1172.92C825.013 1173.77 824.168 1175.02 823.58 1176.54C822.992 1178.05 822.682 1179.78 822.682 1181.54Z" fill="#262626"/>
<path d="M0 140C0 129.507 8.50659 121 19 121H137C147.493 121 156 129.507 156 140V146C156 156.493 147.493 165 137 165H19C8.50659 165 0 156.493 0 146V140Z" fill="#DE8686"/>
<path d="M0 140C0 129.507 8.50659 121 19 121H137C147.493 121 156 129.507 156 140V146C156 156.493 147.493 165 137 165H19C8.50659 165 0 156.493 0 146V140Z" fill="#DE8686"/>
<path d="M0 140C0 129.507 8.50659 121 19 121H137C147.493 121 156 129.507 156 140V146C156 156.493 147.493 165 137 165H19C8.50659 165 0 156.493 0 146V140Z" fill="#DE8686"/>
<path d="M174 140C174 129.507 182.507 121 193 121H371C381.493 121 390 129.507 390 140V146C390 156.493 381.493 165 371 165H193C182.507 165 174 156.493 174 146V140Z" fill="#DE8686"/>
<path d="M174 140C174 129.507 182.507 121 193 121H371C381.493 121 390 129.507 390 140V146C390 156.493 381.493 165 371 165H193C182.507 165 174 156.493 174 146V140Z" fill="#DE8686"/>
<path d="M174 140C174 129.507 182.507 121 193 121H371C381.493 121 390 129.507 390 140V146C390 156.493 381.493 165 371 165H193C182.507 165 174 156.493 174 146V140Z" fill="#67ADC3"/>
<path d="M408 140C408 129.507 416.507 121 427 121H693C703.493 121 712 129.507 712 140V146C712 156.493 703.493 165 693 165H427C416.507 165 408 156.493 408 146V140Z" fill="#DE8686"/>
<path d="M408 140C408 129.507 416.507 121 427 121H693C703.493 121 712 129.507 712 140V146C712 156.493 703.493 165 693 165H427C416.507 165 408 156.493 408 146V140Z" fill="#DE8686"/>
<path d="M408 140C408 129.507 416.507 121 427 121H693C703.493 121 712 129.507 712 140V146C712 156.493 703.493 165 693 165H427C416.507 165 408 156.493 408 146V140Z" fill="#E6CA39"/>
<path d="M967 20C967 9.50659 975.507 1 986 1H1062C1072.49 1 1081 9.50659 1081 20V26C1081 36.4934 1072.49 45 1062 45H986C975.507 45 967 36.4934 967 26V20Z" fill="#DE8686"/>
<path d="M967 20C967 9.50659 975.507 1 986 1H1062C1072.49 1 1081 9.50659 1081 20V26C1081 36.4934 1072.49 45 1062 45H986C975.507 45 967 36.4934 967 26V20Z" fill="#DE8686"/>
<path d="M967 20C967 9.50659 975.507 1 986 1H1062C1072.49 1 1081 9.50659 1081 20V26C1081 36.4934 1072.49 45 1062 45H986C975.507 45 967 36.4934 967 26V20Z" fill="#E6CA39"/>
<path d="M1098 19C1098 8.50659 1106.51 0 1117 0H1252C1262.49 0 1271 8.50659 1271 19V25C1271 35.4934 1262.49 44 1252 44H1117C1106.51 44 1098 35.4934 1098 25V19Z" fill="#DE8686"/>
<path d="M1098 19C1098 8.50659 1106.51 0 1117 0H1252C1262.49 0 1271 8.50659 1271 19V25C1271 35.4934 1262.49 44 1252 44H1117C1106.51 44 1098 35.4934 1098 25V19Z" fill="#DE8686"/>
<path d="M1098 19C1098 8.50659 1106.51 0 1117 0H1252C1262.49 0 1271 8.50659 1271 19V25C1271 35.4934 1262.49 44 1252 44H1117C1106.51 44 1098 35.4934 1098 25V19Z" fill="#E64439"/>
<path d="M1314 20C1314 9.50659 1322.51 1 1333 1H1425C1435.49 1 1444 9.50659 1444 20V26C1444 36.4934 1435.49 45 1425 45H1333C1322.51 45 1314 36.4934 1314 26V20Z" fill="#DE8686"/>
<path d="M1314 20C1314 9.50659 1322.51 1 1333 1H1425C1435.49 1 1444 9.50659 1444 20V26C1444 36.4934 1435.49 45 1425 45H1333C1322.51 45 1314 36.4934 1314 26V20Z" fill="#DE8686"/>
<path d="M1314 20C1314 9.50659 1322.51 1 1333 1H1425C1435.49 1 1444 9.50659 1444 20V26C1444 36.4934 1435.49 45 1425 45H1333C1322.51 45 1314 36.4934 1314 26V20Z" fill="#9A39E6"/>
<path d="M967 99C967 88.5066 975.507 80 986 80H1136C1146.49 80 1155 88.5066 1155 99V105C1155 115.493 1146.49 124 1136 124H986C975.507 124 967 115.493 967 105V99Z" fill="#DE8686"/>
<path d="M967 99C967 88.5066 975.507 80 986 80H1136C1146.49 80 1155 88.5066 1155 99V105C1155 115.493 1146.49 124 1136 124H986C975.507 124 967 115.493 967 105V99Z" fill="#DE8686"/>
<path d="M967 99C967 88.5066 975.507 80 986 80H1136C1146.49 80 1155 88.5066 1155 99V105C1155 115.493 1146.49 124 1136 124H986C975.507 124 967 115.493 967 105V99Z" fill="#39E64A"/>
<path d="M1175 100C1175 89.5066 1183.51 81 1194 81H1425C1435.49 81 1444 89.5066 1444 100V106C1444 116.493 1435.49 125 1425 125H1194C1183.51 125 1175 116.493 1175 106V100Z" fill="#DE8686"/>
<path d="M1175 100C1175 89.5066 1183.51 81 1194 81H1425C1435.49 81 1444 89.5066 1444 100V106C1444 116.493 1435.49 125 1425 125H1194C1183.51 125 1175 116.493 1175 106V100Z" fill="#DE8686"/>
<path d="M1175 100C1175 89.5066 1183.51 81 1194 81H1425C1435.49 81 1444 89.5066 1444 100V106C1444 116.493 1435.49 125 1425 125H1194C1183.51 125 1175 116.493 1175 106V100Z" fill="#39DBE6"/>
<path d="M967 181C967 170.507 975.507 162 986 162H1295C1305.49 162 1314 170.507 1314 181V187C1314 197.493 1305.49 206 1295 206H986C975.507 206 967 197.493 967 187V181Z" fill="#DE8686"/>
<path d="M967 181C967 170.507 975.507 162 986 162H1295C1305.49 162 1314 170.507 1314 181V187C1314 197.493 1305.49 206 1295 206H986C975.507 206 967 197.493 967 187V181Z" fill="#DE8686"/>
<path d="M967 181C967 170.507 975.507 162 986 162H1295C1305.49 162 1314 170.507 1314 181V187C1314 197.493 1305.49 206 1295 206H986C975.507 206 967 197.493 967 187V181Z" fill="#43402F"/>
<path d="M1332 181C1332 170.507 1340.51 162 1351 162H1425C1435.49 162 1444 170.507 1444 181V187C1444 197.493 1435.49 206 1425 206H1351C1340.51 206 1332 197.493 1332 187V181Z" fill="#DE8686"/>
<path d="M1332 181C1332 170.507 1340.51 162 1351 162H1425C1435.49 162 1444 170.507 1444 181V187C1444 197.493 1435.49 206 1425 206H1351C1340.51 206 1332 197.493 1332 187V181Z" fill="#DE8686"/>
<path d="M1332 181C1332 170.507 1340.51 162 1351 162H1425C1435.49 162 1444 170.507 1444 181V187C1444 197.493 1435.49 206 1425 206H1351C1340.51 206 1332 197.493 1332 187V181Z" fill="black"/>
</svg>
