<svg width="209" height="242" viewBox="0 0 209 242" fill="none" xmlns="http://www.w3.org/2000/svg">
<path d="M198.964 32.8379C164.766 32.894 131.483 21.796 104.167 1.22827C76.8503 21.7966 43.5667 32.8946 9.36792 32.8379C6.55748 32.8379 3.75292 32.7687 0.979734 32.6139V92.0458C1.01437 145.469 22.2868 194.691 68.9779 220.671L104.165 240.195L139.352 220.672C186.044 194.692 207.315 145.47 207.349 92.0465V32.6119C204.577 32.7667 201.769 32.8379 198.964 32.8379Z" fill="white"/>
<path d="M104.165 241.313L68.5015 221.526C45.8794 208.939 28.4194 190.623 16.6064 167.087C5.76008 145.478 0.0183005 119.529 0 92.0445V31.5757L1.03528 31.6332C3.67513 31.7809 6.47903 31.856 9.36855 31.856C43.3623 31.9632 76.4541 20.9289 103.576 0.442967L104.164 0L104.752 0.442967C131.875 20.9302 164.968 31.9652 198.964 31.8579C201.854 31.8579 204.657 31.7828 207.297 31.6352L208.332 31.5777V92.0458C208.314 119.532 202.572 145.481 191.726 167.089C179.912 190.625 162.452 208.941 139.831 221.527L104.165 241.313ZM1.96011 33.6442V92.0439C1.99737 149.397 26.6005 195.967 69.4544 219.813L104.165 239.072L138.877 219.812C181.731 195.965 206.332 149.397 206.369 92.0432V33.6442C204 33.7579 201.514 33.816 198.962 33.816C164.795 33.9241 131.52 22.9147 104.165 2.45067C76.8096 22.9152 43.5353 33.9254 9.36791 33.818C6.8163 33.818 4.33003 33.7579 1.96011 33.6442Z" fill="#292A2E"/>
<path d="M198.964 32.8379C164.766 32.894 131.483 21.796 104.167 1.22827C76.8503 21.7966 43.5667 32.8946 9.36792 32.8379C6.55748 32.8379 3.75292 32.7687 0.979734 32.6139V92.0458C1.01437 145.469 22.2868 194.691 68.9779 220.671L104.165 240.195L139.352 220.672C186.044 194.692 207.315 145.47 207.349 92.0465V32.6119C204.577 32.7667 201.769 32.8379 198.964 32.8379Z" fill="white"/>
<path d="M104.165 241.313L68.5015 221.526C45.8794 208.939 28.4194 190.623 16.6064 167.087C5.76008 145.478 0.0183005 119.529 0 92.0445V31.5757L1.03528 31.6332C3.67513 31.7809 6.47903 31.856 9.36855 31.856C43.3623 31.9632 76.4541 20.9289 103.576 0.442967L104.164 0L104.752 0.442967C131.875 20.9302 164.968 31.9652 198.964 31.8579C201.854 31.8579 204.657 31.7828 207.297 31.6352L208.332 31.5777V92.0458C208.314 119.532 202.572 145.481 191.726 167.089C179.912 190.625 162.452 208.941 139.831 221.527L104.165 241.313ZM1.96011 33.6442V92.0439C1.99737 149.397 26.6005 195.967 69.4544 219.813L104.165 239.072L138.877 219.812C181.731 195.965 206.332 149.397 206.369 92.0432V33.6442C204 33.7579 201.514 33.816 198.962 33.816C164.795 33.9241 131.52 22.9147 104.165 2.45067C76.8096 22.9152 43.5353 33.9254 9.36791 33.818C6.8163 33.818 4.33003 33.7579 1.96011 33.6442Z" fill="#292A2E"/>
<path d="M128.981 78.3408V101.345C128.981 102.265 128.616 103.147 127.965 103.798C127.314 104.449 126.431 104.814 125.511 104.814C124.59 104.814 123.708 104.449 123.057 103.798C122.406 103.147 122.04 102.265 122.04 101.345V78.3408C122.04 69.4097 114.021 62.1381 104.165 62.1381C94.3085 62.1381 86.2889 69.4097 86.2889 78.3408V103.043C86.2889 103.964 85.9233 104.846 85.2724 105.497C84.6216 106.147 83.7388 106.513 82.8184 106.513C81.8979 106.513 81.0152 106.147 80.3643 105.497C79.7135 104.846 79.3478 103.964 79.3478 103.043V78.3408C79.3478 65.5812 90.4785 55.1997 104.165 55.1997C117.851 55.1997 128.981 65.5812 128.981 78.3408Z" fill="#292A2E"/>
<path d="M128.981 101.345C128.981 102.265 128.616 103.147 127.965 103.798C127.314 104.449 126.431 104.814 125.511 104.814C124.59 104.814 123.708 104.449 123.057 103.798C122.406 103.147 122.04 102.265 122.04 101.345V78.3408C122.04 69.4097 114.021 62.1381 104.165 62.1381C94.3085 62.1381 86.2889 69.4097 86.2889 78.3408V103.043C86.2889 103.964 85.9233 104.846 85.2724 105.497C84.6216 106.147 83.7388 106.513 82.8184 106.513C81.8979 106.513 81.0152 106.147 80.3643 105.497C79.7135 104.846 79.3478 103.964 79.3478 103.043V78.3408C79.3478 65.5812 90.4785 55.1997 104.165 55.1997C117.851 55.1997 128.981 65.5812 128.981 78.3408V101.345Z" fill="#292A2E"/>
<path d="M136.727 98.77H71.6028C67.805 98.77 64.7263 101.847 64.7263 105.644V166.963C64.7263 170.759 67.805 173.836 71.6028 173.836H136.727C140.525 173.836 143.604 170.759 143.604 166.963V105.644C143.604 101.847 140.525 98.77 136.727 98.77Z" fill="#367CFF"/>
<path d="M97.6817 130.233C97.6819 131.449 98.0246 132.642 98.6704 133.673C99.3162 134.705 100.239 135.534 101.334 136.066V146.024C101.345 146.767 101.648 147.476 102.178 147.997C102.708 148.519 103.421 148.811 104.165 148.811C104.908 148.811 105.622 148.519 106.152 147.997C106.681 147.476 106.985 146.767 106.996 146.024V136.065C108.038 135.56 108.925 134.785 109.566 133.821C110.207 132.857 110.578 131.739 110.641 130.583C110.703 129.427 110.455 128.276 109.922 127.248C109.388 126.221 108.59 125.355 107.608 124.74C106.627 124.126 105.499 123.785 104.342 123.754C103.184 123.722 102.039 124.002 101.026 124.562C100.013 125.123 99.1684 125.944 98.5803 126.941C97.9921 127.938 97.6819 129.075 97.6817 130.233Z" fill="#262626"/>
</svg>
